<svg aria-hidden="true" style="position:absolute;width:0;height:0" xmlns="http://www.w3.org/2000/svg" overflow="hidden"><defs><symbol id="icon-envelop" viewBox="0 0 32 32"><path  opacity=".8" d="M16 0C7.161 0 0 7.164 0 16c0 8.839 7.161 16 16 16 8.835 0 16-7.161 16-16 0-8.836-7.165-16-16-16zm9.569 9.371l.023.004-8.929 8.931a.814.814 0 01-1.121-.003L6.609 9.371H25.57zm-19.584.598c0-.007.004-.011.004-.011l6.068 6.065-6.072 6.072V9.968zm.598 12.828c-.027 0-.052-.013-.079-.017l6.155-6.153 2.279 2.279c.308.311.724.48 1.165.48.437 0 .853-.169 1.161-.48l2.204-2.205 6.096 6.097H6.583zm19.585-.602l-6.096-6.096 6.096-6.096v12.192z"/></symbol><symbol id="icon-tel" viewBox="0 0 32 32"><path  opacity=".8" d="M16 0C7.164 0 0 7.164 0 16s7.164 16 16 16 16-7.164 16-16S24.836 0 16 0zm4.303 24.245c-2.12-.131-6.289-2.565-8.232-4.752-1.937-2.188-3.861-6.617-3.735-8.741 0 0 2.309-3.055 3.369-2.993 1.068.064 4.057 3.435 2.927 4.437-1.12.996-2.183.935-2.245 1.992-.06 1.06.935 2.188 1.927 3.311 1.003 1.128 1.997 2.247 3.06 2.307 1.06.067 1.125-.991 2.245-1.993 1.125-.997 4.12 2.379 4.055 3.439-.059 1.056-3.371 2.995-3.371 2.995z"/></symbol><symbol id="icon-logo" viewBox="0 0 32 32"><path fill="var(--color2, #3fa9f5)" d="M14.877 18.041c.289.056.341-.085.388-.185s.185-.255.386-.35c.202-.096.473-.258.579-.354.107-.097.221-.217.464-.226s.364-.129.44-.285c.078-.156.024-.485.077-.601.053-.115.188-.32.267-.501.08-.18.011-.165-.108-.113-.119.051-.223.092-.269.252-.047.161-.09.197-.24.307-.151.109-.26.187-.421.238-.163.051-.479.15-.657.237a7.478 7.478 0 00-.534.292l-1.226 1.226c.229-.024.596.013.854.063z"/><path fill="var(--color2, #3fa9f5)" d="M28.183 5.633c-.059.048-.103.092-.112.124-.031.111-.048.594-.161.801-.111.207-.148.605-.15.679a.66.66 0 01-.087.326c-.073.121-.223.298-.168.388s.269.251.156.367c-.114.116-.391.284-.311.455.083.172.212.487.206.615s-.084.254-.004.339c.081.086.148.261.031.449s-.694.999-1.049 1.296c-.353.297-.68.631-.781.823s-.112.339-.163.406c-.05.067-.196.17-.301.271-.104.101-.022.162.032.251s.009.232-.077.319-.318.211-.174.305.179.255.111.328c-.068.073-.217.271-.227.344-.011.073-.344.075-.503-.033-.158-.108-.418-.28-.362-.334s.205-.132.338-.299c.135-.167.118-.404.194-.431.079-.026.099-.171-.036-.264-.136-.093-.185-.186-.053-.341.133-.155.286-.454.057-.584s-.485-.067-.781.028c-.297.095-.246.164-.627.519-.383.354-.225.549-.458.802-.232.252-.212.378-.444.63-.231.252-.584.475-.697.67s.016.237.26.085c.244-.151.133-.155.496-.191.364-.036.367.026.616-.088.252-.113.386-.194.494-.08s.296.362.379.559c.084.197.108.472.039.796-.07.324-.028.478-.216.674-.188.196-.449.296-.699.41s-.169.063-.409.19c-.24.128-.289.034-.401-.129-.114-.164-.456-.1-.61.027-.152.127-.673.685-.848.784-.174.1-.652.244-.81.407s-.19.308-.081.409c.11.102.22.463-.057.597s-.44.236-.516.423c-.074.188-.422.387-.633.468-.209.083-.674.24-.842.465-.166.224-.293.416-.489.5-.196.085-.549.308-.762.328s-.383-.275-.85-.191c-.469.084-.954.202-1.064.286-.112.083-.233.251-.367.333-.135.08-.251.212-.631.27-.377.06-.492.081-.734.22-.241.139-.452.321-.66.403-.21.082-.438.038-.539.321-.1.283-.149.634-.34.767-.191.135-.231.24-.396.266-.163.028-.2-.595-.604-.528-.406.068-.539.136-.667.082-.129-.055-.187-.088-.376-.052-.19.036-.61-.048-.743.194-.132.241-.296.267-.433.644-.14.376-.16.435.038.523.198.089.187.174.077.258-.112.083-.383.256-.46.455s-.094.321-.202.478-.336.374-.233.437c.103.063.217.215.1.261-.117.045-.363.123-.549.406-.188.283-.595.647-.773.857a1.545 1.545 0 01-.194.194A15.923 15.923 0 0016.001 32c8.837 0 16-7.163 16-16 0-3.956-1.439-7.574-3.817-10.367z"/><path fill="var(--color3, #70cf29)" d="M14.571 16.966c-.177-.025-.332.114-.402.179-.071.064-.115.021-.256-.023-.143-.044-.288.109-.328.226-.041.118-.249.101-.327.041s-.287.022-.41.105c-.123.081-.233.202-.362.333-.129.13.153.256.247.355.089.094.233.048.32.011s.266-.086.38-.129c.113-.042.292-.033.504-.079.023-.005.058-.005.086-.008l1.226-1.226c-.014.008-.027.015-.04.024-.209.125-.461.214-.636.19z"/><path fill="var(--color3, #70cf29)" d="M3.664 25.559c.604-.197 1.138-.847 1.351-1.197.212-.349.752-1.048 1.094-1.496s1.225-1 1.967-1.244c.741-.243 1.575-.557 2.002-1.025.426-.468.396-.604.676-.73s.647-.272.734-.426c.086-.152.091-.662.521-.801s.415-.144.453-.324c.037-.18-.215-.314-.35-.333-.133-.018-.516.077-.462-.051.055-.128.312-.464.642-.615s.724-.419.822-.591c.098-.171.371-.455.7-.607.331-.152.785-.411 1.008-.503s.787-.324.907-.394c.121-.07.572-.205.594-.449.02-.244-.173-.271.05-.548s.356-.347.554-.702c.196-.355.255-.422.534-.568s.968-.57 1.055-.571c.086-.001.286-.01.443-.26s.351-.223.506-.264c.153-.04.381-.441.575-.502.193-.06.263-.297.287-.466s.114-.552.305-.6c.191-.048.319-.351.367-.517.047-.167.109-.615.341-.681.231-.068.151-.029.286-.196.133-.167.247-.448.455-.616.21-.168.308-.254.365-.493.059-.239.22-.97.525-1.384s.606-.632.943-.92c.336-.287.345-.632.536-.84s.059-.338.177-.47c.115-.132.131-.241.153-.312s-.081-.209.063-.362c.144-.153.267-.148.397-.278.087-.087.068-.161.068-.233A15.91 15.91 0 0016.003 0c-8.837 0-16 7.163-16 16 0 3.656 1.229 7.023 3.292 9.717.12-.06.245-.117.373-.158z"/></symbol></defs></svg>